<mxfile host="app.diagrams.net" modified="2020-11-28T11:06:20.716Z" agent="5.0 (Macintosh; Intel Mac OS X 10_15_6) AppleWebKit/537.36 (KHTML, like Gecko) Chrome/87.0.4280.67 Safari/537.36" etag="CZ6K2OKUHGSZHDeQN_DH" version="13.10.4" type="github">
  <diagram id="fkW-WRKrugtxqqPaf0fZ" name="Page-1">
    <mxGraphModel dx="946" dy="557" grid="1" gridSize="10" guides="1" tooltips="1" connect="1" arrows="1" fold="1" page="1" pageScale="1" pageWidth="3300" pageHeight="4681" math="0" shadow="0">
      <root>
        <mxCell id="0" />
        <mxCell id="1" parent="0" />
        <mxCell id="IVuxKr_WU32hDrAVXjeR-33" value="" style="rounded=0;whiteSpace=wrap;html=1;" vertex="1" parent="1">
          <mxGeometry x="150" y="40" width="720" height="470" as="geometry" />
        </mxCell>
        <mxCell id="IVuxKr_WU32hDrAVXjeR-34" value="" style="rounded=0;whiteSpace=wrap;html=1;fillColor=#DBC402;" vertex="1" parent="1">
          <mxGeometry x="550" y="170" width="220" height="270" as="geometry" />
        </mxCell>
        <mxCell id="IVuxKr_WU32hDrAVXjeR-35" style="edgeStyle=orthogonalEdgeStyle;rounded=0;orthogonalLoop=1;jettySize=auto;html=1;exitX=0.5;exitY=1;exitDx=0;exitDy=0;entryX=0.5;entryY=0;entryDx=0;entryDy=0;" edge="1" parent="1" source="IVuxKr_WU32hDrAVXjeR-36" target="IVuxKr_WU32hDrAVXjeR-38">
          <mxGeometry relative="1" as="geometry" />
        </mxCell>
        <mxCell id="IVuxKr_WU32hDrAVXjeR-55" value="&lt;span style=&quot;background-color: rgb(219 , 196 , 2)&quot;&gt;各类文件&lt;/span&gt;" style="edgeLabel;html=1;align=center;verticalAlign=middle;resizable=0;points=[];" vertex="1" connectable="0" parent="IVuxKr_WU32hDrAVXjeR-35">
          <mxGeometry x="-0.1385" y="2" relative="1" as="geometry">
            <mxPoint as="offset" />
          </mxGeometry>
        </mxCell>
        <mxCell id="IVuxKr_WU32hDrAVXjeR-36" value="&lt;font style=&quot;font-size: 13px&quot;&gt;用户代码&lt;/font&gt;" style="rounded=0;whiteSpace=wrap;html=1;" vertex="1" parent="1">
          <mxGeometry x="585" y="200" width="140" height="40" as="geometry" />
        </mxCell>
        <mxCell id="IVuxKr_WU32hDrAVXjeR-59" style="edgeStyle=orthogonalEdgeStyle;rounded=0;orthogonalLoop=1;jettySize=auto;html=1;exitX=0.5;exitY=1;exitDx=0;exitDy=0;entryX=0.5;entryY=0;entryDx=0;entryDy=0;" edge="1" parent="1" source="IVuxKr_WU32hDrAVXjeR-38" target="IVuxKr_WU32hDrAVXjeR-40">
          <mxGeometry relative="1" as="geometry" />
        </mxCell>
        <mxCell id="IVuxKr_WU32hDrAVXjeR-60" value="&lt;span style=&quot;background-color: rgb(219 , 196 , 2)&quot;&gt;JS 代码&lt;/span&gt;" style="edgeLabel;html=1;align=center;verticalAlign=middle;resizable=0;points=[];" vertex="1" connectable="0" parent="IVuxKr_WU32hDrAVXjeR-59">
          <mxGeometry x="-0.05" y="1" relative="1" as="geometry">
            <mxPoint as="offset" />
          </mxGeometry>
        </mxCell>
        <mxCell id="IVuxKr_WU32hDrAVXjeR-38" value="&lt;font style=&quot;font-size: 13px&quot;&gt;loader 解析&lt;/font&gt;" style="rounded=0;whiteSpace=wrap;html=1;" vertex="1" parent="1">
          <mxGeometry x="585" y="290" width="140" height="40" as="geometry" />
        </mxCell>
        <mxCell id="IVuxKr_WU32hDrAVXjeR-40" value="&lt;font style=&quot;font-size: 13px&quot;&gt;JS 处理&lt;/font&gt;" style="rounded=0;whiteSpace=wrap;html=1;" vertex="1" parent="1">
          <mxGeometry x="585" y="370" width="140" height="40" as="geometry" />
        </mxCell>
        <mxCell id="IVuxKr_WU32hDrAVXjeR-41" value="&lt;font style=&quot;font-size: 14px&quot;&gt;JS 线程（沙箱环境）&lt;/font&gt;" style="text;html=1;strokeColor=none;fillColor=none;align=center;verticalAlign=middle;whiteSpace=wrap;rounded=0;" vertex="1" parent="1">
          <mxGeometry x="593.75" y="130" width="146.25" height="20" as="geometry" />
        </mxCell>
        <mxCell id="IVuxKr_WU32hDrAVXjeR-42" value="&lt;font style=&quot;font-size: 14px&quot;&gt;UI 线程&lt;/font&gt;" style="text;html=1;strokeColor=none;fillColor=none;align=center;verticalAlign=middle;whiteSpace=wrap;rounded=0;" vertex="1" parent="1">
          <mxGeometry x="310" y="210" width="65" height="20" as="geometry" />
        </mxCell>
        <mxCell id="IVuxKr_WU32hDrAVXjeR-48" value="" style="rounded=0;whiteSpace=wrap;html=1;fillColor=#03FFE7;" vertex="1" parent="1">
          <mxGeometry x="238.75" y="250" width="207.5" height="195" as="geometry" />
        </mxCell>
        <mxCell id="IVuxKr_WU32hDrAVXjeR-49" style="edgeStyle=orthogonalEdgeStyle;rounded=0;orthogonalLoop=1;jettySize=auto;html=1;exitX=0.5;exitY=0;exitDx=0;exitDy=0;entryX=0.5;entryY=1;entryDx=0;entryDy=0;" edge="1" parent="1" source="IVuxKr_WU32hDrAVXjeR-50" target="IVuxKr_WU32hDrAVXjeR-51">
          <mxGeometry relative="1" as="geometry" />
        </mxCell>
        <mxCell id="IVuxKr_WU32hDrAVXjeR-58" value="DOM、事件" style="edgeLabel;html=1;align=center;verticalAlign=middle;resizable=0;points=[];labelBackgroundColor=#03FFE7;" vertex="1" connectable="0" parent="IVuxKr_WU32hDrAVXjeR-49">
          <mxGeometry x="-0.2" relative="1" as="geometry">
            <mxPoint x="1" as="offset" />
          </mxGeometry>
        </mxCell>
        <mxCell id="IVuxKr_WU32hDrAVXjeR-50" value="&lt;font style=&quot;font-size: 13px&quot;&gt;解析指令&lt;/font&gt;" style="rounded=0;whiteSpace=wrap;html=1;" vertex="1" parent="1">
          <mxGeometry x="272.5" y="370" width="140" height="40" as="geometry" />
        </mxCell>
        <mxCell id="IVuxKr_WU32hDrAVXjeR-51" value="&lt;font style=&quot;font-size: 13px&quot;&gt;绘制页面&lt;/font&gt;" style="rounded=0;whiteSpace=wrap;html=1;" vertex="1" parent="1">
          <mxGeometry x="272.5" y="280" width="140" height="40" as="geometry" />
        </mxCell>
        <mxCell id="IVuxKr_WU32hDrAVXjeR-53" value="" style="endArrow=classic;html=1;entryX=1;entryY=0.5;entryDx=0;entryDy=0;exitX=0;exitY=0.5;exitDx=0;exitDy=0;" edge="1" parent="1" source="IVuxKr_WU32hDrAVXjeR-40" target="IVuxKr_WU32hDrAVXjeR-50">
          <mxGeometry width="50" height="50" relative="1" as="geometry">
            <mxPoint x="460" y="480" as="sourcePoint" />
            <mxPoint x="510" y="430" as="targetPoint" />
          </mxGeometry>
        </mxCell>
        <mxCell id="IVuxKr_WU32hDrAVXjeR-61" value="指令" style="edgeLabel;html=1;align=center;verticalAlign=middle;resizable=0;points=[];" vertex="1" connectable="0" parent="IVuxKr_WU32hDrAVXjeR-53">
          <mxGeometry x="-0.0145" y="-2" relative="1" as="geometry">
            <mxPoint as="offset" />
          </mxGeometry>
        </mxCell>
        <mxCell id="IVuxKr_WU32hDrAVXjeR-56" value="&lt;b&gt;&lt;font style=&quot;font-size: 17px&quot;&gt;小程序框架—双线程&lt;/font&gt;&lt;/b&gt;" style="text;html=1;strokeColor=none;fillColor=none;align=center;verticalAlign=middle;whiteSpace=wrap;rounded=0;" vertex="1" parent="1">
          <mxGeometry x="430" y="72" width="180" height="20" as="geometry" />
        </mxCell>
      </root>
    </mxGraphModel>
  </diagram>
</mxfile>
